<svg id="Layer_1" data-name="Layer 1" xmlns="http://www.w3.org/2000/svg" viewBox="0 0 292.89 73.35"><title>logoMain</title><rect x="15.23" y="15.48" width="4.03" height="41.05" fill="#79b943"/><polygon points="0 3.56 0 68.44 61.27 68.44 61.27 64.45 3.99 64.45 3.99 7.55 57.24 7.55 57.25 51.2 34.45 15.48 30.03 15.48 30.03 56.53 34 56.53 34 21.27 56.34 56.53 61.27 56.53 61.27 3.56 0 3.56" fill="#79b943"/><path d="M175.87,267.21a12.48,12.48,0,0,0,6.68,1.91,14.6,14.6,0,0,0,7.67-1.91,6.45,6.45,0,0,0,3.17-6,5.14,5.14,0,0,0-3.32-5.15,46.79,46.79,0,0,0-7.52-2.41l-.76-.15-.76-.15a37.55,37.55,0,0,1-8.44-3q-3.86-1.95-3.86-7.14a9.5,9.5,0,0,1,3.32-7.14q3.32-3.09,10.5-3.09a25.77,25.77,0,0,1,10.23,1.87q4.35,1.87,4.81,7.75l-5.42-.08a6.25,6.25,0,0,0-3-4.24,12,12,0,0,0-6.6-1.64q-4,0-5.8,1.26a6,6,0,0,0-2.29,2.71,8.21,8.21,0,0,0-.23,1,6.24,6.24,0,0,0-.08,1,4.23,4.23,0,0,0,2.82,4.08,38.87,38.87,0,0,0,6.57,2.18q.76.23,1.49.38t1.49.38a35,35,0,0,1,8.44,3.44q3.85,2.22,3.86,7.64a11.11,11.11,0,0,1-5,9.7,19.38,19.38,0,0,1-11.3,3.44q-1.07,0-2.21-.11t-2.29-.34a15.3,15.3,0,0,1-6.95-3.51q-3.21-2.75-3.59-8.63l4.81-.08A7.63,7.63,0,0,0,175.87,267.21Z" transform="translate(-96.29 -217.36)" fill="#fff"/><path d="M213.25,217.36v6h-6v-6Zm-.61,16.8v38.48h-4.81V234.16Z" transform="translate(-96.29 -217.36)" fill="#fff"/><path d="M251.65,234.16h4.81q0,.92-.08,2.33t-.23,2.94v.46q-.08,1.6-.19,3.05t-.11,2.14v24.58a24.74,24.74,0,0,1-3,12.18q-3,5.38-13.82,5.84-6.87,0-11-2.86t-4.16-7.14v-.19a.26.26,0,0,1,.08-.19v-.46h4.81a6.31,6.31,0,0,0,3.32,5.12,14.51,14.51,0,0,0,6.91,1.53,11.43,11.43,0,0,0,7.1-2,12.14,12.14,0,0,0,3.74-4.43,11,11,0,0,0,.88-2.37,9.19,9.19,0,0,0,.27-2.06V266a15.62,15.62,0,0,1-5.15,5,14.85,14.85,0,0,1-7.44,1.68q-8.09,0-12.25-5.76a24.93,24.93,0,0,1-4.62-13.4v-.88a5.32,5.32,0,0,1,.08-.88,25.32,25.32,0,0,1,3.89-12.52q3.59-5.73,12.9-6.18a15,15,0,0,1,7,1.53,17.06,17.06,0,0,1,5.61,5.12,35.61,35.61,0,0,1,.61-5.42Zm-.61,18a16.36,16.36,0,0,0-3.51-10.61,10.57,10.57,0,0,0-8.47-4.35,9.49,9.49,0,0,0-7.79,3.47,18.17,18.17,0,0,0-3.74,7.67,14.4,14.4,0,0,0-.42,2.29q-.11,1.14-.11,2.21a18.16,18.16,0,0,0,3.47,10.77q3.47,4.89,8,4.89a11.88,11.88,0,0,0,8.86-3.89q3.74-3.89,3.82-10.92V253a.75.75,0,0,1-.08-.34v-.5Z" transform="translate(-96.29 -217.36)" fill="#fff"/><path d="M271.12,217.36v22.83a9.11,9.11,0,0,1,3.82-5.12q3-2.06,8.78-2.06a12.91,12.91,0,0,1,9.54,3.66q3.66,3.66,3.66,11.38v24.58h-4.81V249.81c0-.51,0-1-.08-1.6s-.1-1.15-.15-1.76a13.83,13.83,0,0,0-2.75-6.34q-2.22-2.9-7.25-2.9-5.42,0-7.9,3.86a17.59,17.59,0,0,0-2.79,8.51,3.83,3.83,0,0,0-.08.76v22.29h-4.81V217.36Z" transform="translate(-96.29 -217.36)" fill="#fff"/><path d="M303.57,234.16h7.79v-7.79l4.81-1.83v9.62h9v4.2h-9v25.27q0,3.59,1.41,4.85a5.35,5.35,0,0,0,3.7,1.26,15.79,15.79,0,0,0,2.18-.15,21.89,21.89,0,0,0,2.33-.46v4.12a24.28,24.28,0,0,1-2.83.57,19.11,19.11,0,0,1-2.6.19q-4.51,0-6.76-2.29a8.44,8.44,0,0,1-2.25-6.18V238.36h-7.79Z" transform="translate(-96.29 -217.36)" fill="#fff"/><path d="M340.33,267.21a12.48,12.48,0,0,0,6.68,1.91,14.6,14.6,0,0,0,7.67-1.91,6.46,6.46,0,0,0,3.17-6,5.14,5.14,0,0,0-3.32-5.15A46.77,46.77,0,0,0,347,253.7l-.76-.15-.76-.15a37.53,37.53,0,0,1-8.44-3q-3.86-1.95-3.86-7.14a9.5,9.5,0,0,1,3.32-7.14Q339.83,233,347,233a25.77,25.77,0,0,1,10.23,1.87q4.35,1.87,4.81,7.75l-5.42-.08a6.25,6.25,0,0,0-3-4.24,12,12,0,0,0-6.6-1.64q-4,0-5.8,1.26a6,6,0,0,0-2.29,2.71,8.12,8.12,0,0,0-.23,1,6.19,6.19,0,0,0-.08,1,4.23,4.23,0,0,0,2.83,4.08,38.86,38.86,0,0,0,6.57,2.18q.76.23,1.49.38t1.49.38a35,35,0,0,1,8.44,3.44q3.85,2.22,3.86,7.64a11.11,11.11,0,0,1-5,9.7,19.38,19.38,0,0,1-11.3,3.44q-1.07,0-2.21-.11t-2.29-.34a15.3,15.3,0,0,1-6.95-3.51q-3.21-2.75-3.59-8.63l4.81-.08A7.63,7.63,0,0,0,340.33,267.21Z" transform="translate(-96.29 -217.36)" fill="#fff"/><path d="M270.16,284h1.13l-.48,2.59a5.12,5.12,0,0,0-.1.73c0,.18.06.3.16.3.32,0,1-.47,1-2,0-1.94-1.36-2.81-3.12-2.81a3.27,3.27,0,0,0-3.38,3.37,3.23,3.23,0,0,0,3.33,3.35,3.59,3.59,0,0,0,2.48-.76h1.39a4.39,4.39,0,0,1-4,2,4.56,4.56,0,1,1,0-9.11c2.91,0,4.56,1.57,4.56,3.63a3.58,3.58,0,0,1-3.18,3.69.65.65,0,0,1-.7-.62h0a1.41,1.41,0,0,1-1.24.62,2.13,2.13,0,0,1-2.06-2.29,2.69,2.69,0,0,1,2.58-2.89,1.66,1.66,0,0,1,1.48.72Zm-1.68,3.41a1.17,1.17,0,0,0,1.1-1.2.86.86,0,0,0-.83-.94,1.18,1.18,0,0,0-1.15,1.21A.86.86,0,0,0,268.49,287.36Z" transform="translate(-96.29 -217.36)" fill="#fff"/><path d="M275.94,281.81h3l1.83,6.31,2-6.31h3v8.67h-1.85V283l-2.36,7.44H280L277.68,283v7.44h-1.74Z" transform="translate(-96.29 -217.36)" fill="#fff"/><path d="M293.14,281.81l3,8.67h-1.87l-.62-1.87h-3.43l-.65,1.87h-1.77l3.13-8.67Zm0,5.4-1.2-3.69-1.28,3.69Z" transform="translate(-96.29 -217.36)" fill="#fff"/><path d="M298.35,281.81H301l3.25,6.82v-6.82H306v8.67h-2.55l-3.36-7.2v7.2h-1.75Z" transform="translate(-96.29 -217.36)" fill="#fff"/><path d="M313.66,281.81l3,8.67H314.8l-.62-1.87h-3.43l-.65,1.87h-1.78l3.13-8.67Zm0,5.4-1.2-3.69-1.28,3.69Z" transform="translate(-96.29 -217.36)" fill="#fff"/><path d="M320.28,283.25H317.7v-1.44h7v1.44h-2.58v7.23h-1.87Z" transform="translate(-96.29 -217.36)" fill="#fff"/><path d="M329.65,283.25h-2.58v-1.44h7v1.44h-2.58v7.23h-1.87Z" transform="translate(-96.29 -217.36)" fill="#fff"/><path d="M337.2,281.81h1.86v3.47h3.27v-3.47h1.88v8.67h-1.86v-3.8h-3.3v3.8H337.2Z" transform="translate(-96.29 -217.36)" fill="#fff"/><path d="M347.39,281.81h5.8v1.41h-3.95v2.06h3.69v1.42h-3.69V289h4.08v1.44h-5.94Z" transform="translate(-96.29 -217.36)" fill="#fff"/><path d="M360.79,281.81l3,8.67h-1.87l-.62-1.87h-3.43l-.65,1.87h-1.78l3.13-8.67Zm0,5.4-1.2-3.69-1.28,3.69Z" transform="translate(-96.29 -217.36)" fill="#fff"/><path d="M366.2,281.82h1.9V289h3.72v1.48H366.2Z" transform="translate(-96.29 -217.36)" fill="#fff"/><path d="M375.45,283.25h-2.58v-1.44h7v1.44h-2.58v7.23h-1.87Z" transform="translate(-96.29 -217.36)" fill="#fff"/><path d="M382.16,281.81H384v3.47h3.27v-3.47h1.88v8.67h-1.86v-3.8H384v3.8h-1.86Z" transform="translate(-96.29 -217.36)" fill="#fff"/></svg>